<?xml version="1.0" encoding="UTF-8" standalone="no"?>
<svg
   xmlns:dc="http://purl.org/dc/elements/1.1/"
   xmlns:cc="http://creativecommons.org/ns#"
   xmlns:rdf="http://www.w3.org/1999/02/22-rdf-syntax-ns#"
   xmlns:svg="http://www.w3.org/2000/svg"
   xmlns="http://www.w3.org/2000/svg"
   viewBox="0 0 1450.6667 1333.3333"
   height="1333.3333"
   width="1450.6667"
   xml:space="preserve"
   id="svg2"
   version="1.1"><metadata
     id="metadata8"><rdf:RDF><cc:Work
         rdf:about=""><dc:format>image/svg+xml</dc:format><dc:type
           rdf:resource="http://purl.org/dc/dcmitype/StillImage" /></cc:Work></rdf:RDF></metadata><defs
     id="defs6" /><g
     transform="matrix(1.3333333,0,0,-1.3333333,0,1333.3333)"
     id="g10"><g
       transform="scale(0.1)"
       id="g12"><path
         id="path14"
         style="fill:#fdd446;fill-opacity:1;fill-rule:nonzero;stroke:none"
         d="m 1701.5,9381.2 c 5.1,74.6 85.9,129.9 157.7,113.3 58.8,-9.4 105.6,-64.8 105.7,-124.3 3.2,-134 -0.2,-268.1 0.7,-402.1 929.1,-2.5 1858.2,-2.9 2787.3,0 1.4,-45.8 2.5,-91.6 3.5,-137.4 -133.6,0.3 -267.2,-0.9 -400.8,0.6 2.4,-177.1 1.2,-354.2 0.4,-531.4 133.3,1.3 266.5,0.2 399.8,1.3 -0.5,-44.6 -1,-89.2 -1.9,-133.8 -132.6,-3.9 -265.2,-2 -397.8,-2.4 1.4,-176 1.7,-352 -0.6,-528.1 133.2,-0.8 266.3,-1.3 399.5,0.6 0,-45.4 0,-90.9 0,-136.3 -132.9,2.8 -265.8,2.3 -398.7,0.5 0.4,-176.3 1.4,-352.7 -0.1,-529.1 133.3,2 266.7,3.1 400,-3.1 -0.9,-43.8 -1,-87.6 -1.9,-131.4 -134.2,-0.1 -268.4,1.5 -402.6,0 -26.5,-133.1 -111.7,-254 -231.2,-319.5 -156.8,-92.8 -356.6,-101.7 -524.5,-33.7 -152.1,55.7 -265.4,195.7 -298.2,353.2 -133.8,1.9 -267.5,-0.8 -401.2,0.6 -0.7,-176.8 -1.9,-353.7 0.4,-530.6 619.3,1.6 1238.7,-0.3 1858,1.1 -0.3,-44.5 0.4,-89 0.7,-133.5 -621.2,-6.6 -1242.4,-0.4 -1863.6,-3.3 -30.1,-127.5 -107.4,-246.6 -222.6,-312.4 -153.5,-93.8 -350.6,-109.7 -518.2,-45.6 -98,37.7 -187.3,103.4 -244.2,192.6 -33.3,51 -55.7,108.3 -71.8,166.8 -443.8,-0.1 -887.698,-3.9 -1331.402,2 -0.296,44.3 -0.199,88.6 0.602,132.9 443.602,0.2 887.1,-0.2 1330.7,0.2 30.7,135.4 118.1,258.7 241.3,324.8 166.6,96.4 378.3,93.5 551.1,14.4 0,63.5 -0.6,127.1 0.7,190.6 -707.7,-0.3 -1415.4,0.8 -2123.198,-0.6 -0.602,44.1 -0.903,88.2 -1.5,132.3 518.698,8.2 1037.498,0.7 1556.198,4 188.8,0.1 377.7,0.6 566.5,-3.4 1.5,177.4 1.9,354.9 0.4,532.3 -221.2,-1.8 -442.4,-0.3 -663.6,-0.8 -30.5,-141.3 -126.9,-265.6 -254.6,-332.6 -115.9,-59.8 -251.5,-80.6 -379.9,-56.8 -128.6,23.1 -253.1,88.4 -331.6,194.8 -44.102,57.8 -74,125.3 -92.699,195.3 -133.102,-1.2 -266.301,-0.1 -399.403,-1.6 -0.699,44.9 -1.398,89.8 -2.5,134.6 134.5,-0.1 268.903,0.8 403.301,0.1 36.403,178.2 181.201,324.5 354.401,374.2 145.1,45 303.4,26.7 440.7,-35.2 -0.6,63.5 -1.5,127 -1.5,190.5 -397.6,-3.3 -795.3,3.6 -1192.8,-3.4 -1.102,46.1 -2.301,92.1 -3.699,138.2 398.801,-0.6 797.699,1.5 1196.599,-1.3 0.2,177.3 -0.6,354.6 0.6,531.9 -399,-1.2 -798,-0.3 -1196.898,-0.5 1,45.5 1.898,91.1 2.699,136.7 398,-2.3 796.099,-0.7 1194.199,-1.1 0.8,138.3 -4.5,276.6 1.5,414.9 M 1966.4,8832 c -1.8,-177.4 0.1,-354.8 -1.2,-532.1 241.8,2.3 483.8,-1.2 725.7,2.2 61.8,60.5 145.5,87.9 223.5,120.7 312.8,138.3 631.6,262.6 942,406.3 -630,4.7 -1260.1,-1 -1890,2.9 m 1804.3,-803.3 c -280.2,-131.9 -563.8,-256.5 -842.7,-391.1 387.5,-2.7 775.1,-0.3 1162.6,-0.7 -0.7,178.4 -0.7,356.9 -0.6,535.3 -109,-42.1 -213.3,-94.8 -319.3,-143.5 M 1965.6,8165 c 0.2,-176.1 0.4,-352.1 0,-528.1 220.2,-0.6 440.3,0.1 660.5,-0.7 3.4,176.1 0.9,352.3 1.3,528.4 -220.6,1.1 -441.2,0.1 -661.8,0.4 m 930.7,-662.5 c -0.2,-176.5 -0.6,-352.9 -0.1,-529.4 133.8,0.9 267.5,1.3 401.3,0.6 35,181.7 185.3,329.5 362.6,375.4 141.4,45.5 295,19.2 429.9,-35.6 -0.3,62.8 0.2,125.6 0.7,188.4 -398.1,2.2 -796.3,0.6 -1194.4,0.6 M 8611.4,9428 c 61.2,39.7 132.4,74 207.3,66.8 49.3,-3.9 97.3,-30.9 120.9,-75.2 49,-84.6 42.1,-186.9 33.2,-280.5 -26,-205.5 -96.9,-401.5 -169.8,-594.2 -140.1,-347 -304.1,-684.4 -490.2,-1009.1 -308.9,3.6 -626.2,158.4 -781.1,432.7 34,87.9 90.2,164.3 133.8,247.2 173.5,287.6 351.8,573.7 564,834.7 113.8,138.4 233.5,275.3 381.9,377.6 m 489.9,-585.7 c 20.9,87.7 37.7,176.3 52.7,265.2 150.7,-51.8 291.9,-129.4 420,-224 136.5,-101.6 265.7,-217.5 358,-361.9 178.6,-270.7 245.8,-600.8 241.8,-921.5 -3.9,-345.1 -93.9,-689.6 -263.9,-990.2 -153.3,-266.3 -376.6,-491 -639,-650.3 -121.3,-74.2 -253.1,-132.9 -392,-164.5 -132.3,-29.3 -276.8,-29.1 -400.6,31.4 -151.9,72.6 -269,221.5 -289.8,390.2 -18.4,162.7 14.7,332.8 -44.7,489.5 -27.4,81 -97.9,134.5 -160.8,187.4 56.5,44.4 112.5,89.4 167.7,135.5 28.9,19.7 6.7,67.6 41.1,83.3 0.2,-65.7 65.1,-95.2 101.7,-139.6 109.5,-123.1 145.4,-291.8 155,-451.9 5.1,-83.9 -0.6,-168 3.7,-252 7,-121.1 119.3,-221.7 238.8,-225.1 78.7,-1.6 156.7,15.5 230.4,42.2 127.6,46.8 244.5,118.9 352.2,201.2 256.2,197 452.2,472.9 546.4,782.6 120.4,380.9 126.1,809.9 -42.7,1177.4 -46.7,108.6 -118.2,205.2 -203.8,286.3 -137.5,129.6 -295.3,240.1 -472.2,308.8 m 134.3,-479.4 c 83.5,18 180.8,-3.4 237.3,-70.7 38.5,-45.7 44.3,-110.6 30.2,-166.8 -30.6,-118.9 -144.3,-202.5 -262.3,-220.8 -79.6,-12.4 -171.4,5.6 -224.5,70.7 -44.7,50.2 -47.9,124.8 -27,186 38,105.5 139.6,177.4 246.3,201.6 m -1810,-608.4 c 187.9,-229.2 465.3,-381.9 759.3,-418.3 -133.5,-158.7 -288.5,-308.9 -483.9,-387.5 70.4,-101 107.7,-226.4 94.1,-349.6 -17.2,-182.6 -105,-352.7 -225.1,-489 -114.5,-131.4 -261.1,-236.8 -426.9,-292.5 -135.9,-46.3 -285.7,-56.9 -425,-19 -36.1,10.2 -72.8,18.8 -107.9,31.9 -26.2,33.6 -31.9,96.3 9.5,121.2 72.8,56.3 131.1,136 149.2,227.4 11.9,56 1,113.2 -6.2,169 -15.8,110.1 -37.8,223 -14.3,333.7 28.8,120.2 85.2,238.4 180,320.3 115.3,98.5 266.7,139.9 414.2,159.3 -26.8,201 14.6,404.4 83,593.1 m 1949.1,-121.7 c 80.8,14.3 174.1,-3.4 230.1,-67.4 51.5,-66.3 47.6,-164.8 5.3,-234.7 -77.3,-130.5 -253.2,-195.2 -395,-137.9 -79,32.4 -120.5,126.9 -100.4,208.3 25.3,123 140.2,211.1 260,231.7 M 8935,6892.3 c 69.6,20.9 148.6,20.6 214.2,-13.3 39.9,-20.6 72,-56.5 85.2,-99.7 21.5,-69.4 3.6,-147.6 -40.4,-204.5 -79.2,-105.5 -225,-161.5 -353,-122 -79.1,23.2 -138.8,104.8 -128.9,188.1 8.2,121.9 111.6,216.4 222.9,251.4 M 2237.5,4436.4 c 5.7,35.2 39.4,57.9 72.6,63 59.3,9.6 119.6,4.5 179.4,6.2 46,0.3 100.4,-7.6 128,-49.1 31.1,-114.6 8.6,-234.4 14.5,-351.3 393.3,1.7 786.6,1.1 1180,0.4 -88.6,-88.3 -177.9,-176.2 -264.3,-266.7 -170,-2.8 -341,-1.7 -511.4,-1 -7.8,-42.6 -18.9,-84.7 -36.8,-124.4 -149.1,-17.6 -299.4,-8.5 -449.1,-7.7 -190.2,-3.3 -380.4,-3 -570.6,-2.5 -39,1.1 -80.6,0.2 -116,19.1 -33.1,28.1 -28.5,76.4 -38,114.8 -305.8,-4 -611.8,8.3 -917.402,-6.2 -6.597,-96.7 -4.199,-193.7 -4.597,-290.6 C 903.898,2927 903.5,2313.5 904,1700.1 c 2.199,-37.9 -1.398,-77.5 7.602,-114.4 83.898,-7.3 168.198,-3.5 252.298,-6.3 8.2,40.3 1,92.1 38.2,119.2 30,15 64.9,14.6 97.7,17.1 719.9,-0.1 1439.9,-0.1 2159.8,-0.1 62,-0.4 126,7.1 186.3,-11.5 45.6,-21.6 43.1,-79.9 52.3,-122.2 83,3.4 167.7,-13.6 249,9.9 4.3,19.3 9.2,38.5 10.4,58.2 1.2,433.8 -3.3,867.9 2.1,1301.7 74.5,114.4 179.1,205.7 258.7,316.5 12.9,-115.7 5.9,-232.1 7.2,-348.2 1.1,-446.7 -0.9,-893.3 0.4,-1339.9 -2.8,-65.1 3.4,-140.5 -45.1,-191.5 -39.5,-47.5 -100.2,-75 -161.7,-75.4 -188.7,-2.2 -377.3,-0.1 -565.9,-0.7 119.9,-232.7 240.9,-464.801 362.7,-696.398 15.3,-27.5 24.6,-61.204 7.7,-90.301 -114.8,-10.602 -230.5,-13.403 -345.6,-5.199 C 3433.9,524 3412,568.801 3393,603 c -120,237 -246.8,470.4 -366.5,707.5 -131.5,3 -263.1,2.3 -394.6,1.3 -1,-144 4.6,-288.1 -1.7,-431.999 -2.7,-40.199 -26.3,-87.801 -70.8,-92.699 -83.2,-7.102 -167.1,-6.801 -250.3,-1 -38.7,1.398 -70.9,35.796 -74.2,73.398 -11.2,150.8 -3.5,302 -4.9,453 -126.8,-0.3 -253.6,0.9 -380.4,-1.1 -126.5,-243.8 -253,-487.599 -380.9,-730.701 -14.1,-26.301 -34.7,-55.5 -67.2,-58.301 -119.7,-13 -240.4,-7.398 -360.1,2.602 2.3,31.699 1.6,65.102 17.8,93.398 120.3,230.903 244,460.002 359.5,693.402 -189.9,2.2 -379.9,-0.6 -569.802,0.6 -64.199,-0.3 -130.5,25 -170.398,76.9 -39.102,47.2 -42.602,111.6 -43.5,170.2 -0.102,763.4 0.102,1526.9 -0.102,2290.4 0.403,33.5 -3.097,67.6 6.102,100.3 21.199,85.1 100.898,154.6 190.102,154.7 467.198,3.1 934.398,0 1401.598,2 -0.5,109.8 -13,220.5 4.8,329.5 m 2227.1,-80.9 c 40.2,16.7 90.2,22.3 128.3,-2.6 27.7,-17.8 27.9,-53.9 27.6,-83.2 -2.8,-93.4 -50.6,-176.6 -92.8,-257.3 -176.4,-306.7 -404.1,-579.6 -634.2,-847.1 -58.5,-71.2 -123.8,-136.5 -189.4,-201.3 -163.4,40 -313.6,152.1 -377.8,310.4 -9.2,25 4.1,50.9 19.9,69.9 228.2,264 468.2,519 732.1,747.9 118.5,101.1 239.2,206.3 386.3,263.3 m 3860.9,7.7 c 108.7,18.7 227.5,-3.7 314.4,-74.1 100.9,-80.3 168.4,-194.2 218,-311.6 197.1,-486.3 232.7,-1041.2 79.7,-1544.8 -56.7,-182.6 -141.1,-358.4 -261.7,-507.6 -95.1,-116.2 -212,-218.4 -350.8,-278.5 -192.3,-82.7 -413.7,-86.4 -612.7,-25.3 -257,76.1 -484.1,231.3 -674.4,417.4 -241.8,235.7 -426.8,527.7 -545.9,843.2 -62,172.7 -117.8,352.4 -116.7,537.7 -0.5,124.6 36.6,257.7 133.6,341.9 110.8,97 264.3,119.7 406.5,125.7 202.9,4.1 411.3,-10.7 607.8,50.9 147.6,48.6 278.7,135.2 404.7,224.3 122.2,84.1 249.3,171.6 397.5,200.8 M 8185.3,3562 c -89.8,-14.9 -172.7,-68.8 -220.9,-146.2 -45.2,-71.8 -34,-175.2 28.2,-233.7 43.6,-38 107.2,-32.9 158.7,-16.1 83.8,28.5 159.7,78.6 223.9,139.1 34.7,35.2 74.6,73.1 78.6,125.5 4.8,38.1 -14.7,75.9 -45.9,97.2 -63.4,46.9 -148.1,47 -222.6,34.2 m -930.6,-288.7 c -85.6,-20.3 -164.7,-70 -217.4,-140.7 -38.6,-50.7 -28.1,-133.8 26.1,-169.4 113.3,-53.4 247.3,-53.7 367.1,-22.7 52.5,16.1 111.6,43.9 128.2,101.1 17.9,71.9 -20.4,146.2 -74,192.6 -64.9,48.9 -152.7,55.9 -230,39.1 m 765,-871.8 c -190.3,-62.9 -395.8,-52.1 -590.5,-17.2 79.3,-164.4 261,-263.1 440.4,-264.3 162.4,-3.5 324.7,57.8 445.5,166 116.6,105.9 181.8,268.1 161.8,425.4 C 8344.5,2582.6 8196.7,2462 8019.7,2401.5 M 3082.8,2858 c 32.1,100.8 74.3,198.6 130,288.6 80.7,-135.5 208.2,-237.4 348.6,-306 -90.2,-57.9 -181.9,-115.3 -281.9,-155.1 19.3,-73.1 25.2,-152.6 -2.2,-224.5 -47.8,-123.3 -146.5,-222.9 -262.9,-283.6 -159.1,-85.4 -367.3,-93.2 -518.4,13.9 1.9,16.3 3.8,32.5 5.7,48.5 55.9,34.1 119.3,71.8 140.1,138.1 24.8,98 9.3,205.1 55.8,297.6 27.4,49.5 62.9,96.4 112,126 80.7,50.8 179.6,62.7 273.2,56.5 m 6108.4,146.6 c 248,-24.6 490.8,55.3 738.3,51.1 138,-5.2 284.6,-66 355.7,-190.1 80.2,-151.5 86.6,-329.9 65.9,-496.8 -48.3,-385.2 -184.5,-761.8 -411.7,-1078.1 -95,-132.3 -205.1,-254.2 -329.9,-359.001 -162.9,-135.301 -357.2,-239.301 -568,-271.801 -154.2,-25.199 -315.4,-4.097 -456.6,63.102 -152.6,70.898 -283.2,183.5 -387.4,314.7 -94.7,115 -162.4,248.7 -228.1,381.6 71.2,-0.6 141.5,21.3 212.8,12.2 32.7,-44.3 55.4,-96.1 87.1,-141.7 85,-134.1 192.3,-257.4 327.7,-342.3 113.6,-70.398 250.3,-109.602 384.2,-91.301 173.5,22.403 333.7,105.199 470,212.101 232.4,183.9 408.4,432.7 528.8,701.9 86.5,195.9 143.8,404.8 167.5,617.7 10.2,116.9 25.1,242.2 -28.3,351.5 -22,49.2 -67.3,85.2 -118.8,99.6 -81,23.7 -166.7,14.1 -249.1,3.5 -190.7,-24.2 -382.6,-58.5 -575.5,-41.3 6.5,67.7 11.9,135.5 15.4,203.4 m 213.2,-591.9 c 165.5,27.1 336.6,-99.4 366.3,-263 14,-69.2 -54.1,-130 -120.2,-127.5 -126.4,5.5 -257.9,38.1 -355.7,122.2 -31.6,25.2 -49.8,65.9 -45.9,106.2 6.9,80.9 74.7,152 155.5,162.1 m -706.6,-739.4 c 218.7,83.4 500.1,-1.3 612.9,-212.6 39.3,-66.5 52.3,-144.8 51.6,-221.2 -138,113.4 -301,207.6 -481.6,226.1 -153.8,13.7 -306.2,-25.6 -449.8,-77.4 35.8,131.2 140.8,237.4 266.9,285.1" /></g></g></svg>