<?xml version="1.0" encoding="UTF-8" standalone="no"?>
<svg
   xmlns:dc="http://purl.org/dc/elements/1.1/"
   xmlns:cc="http://creativecommons.org/ns#"
   xmlns:rdf="http://www.w3.org/1999/02/22-rdf-syntax-ns#"
   xmlns:svg="http://www.w3.org/2000/svg"
   xmlns="http://www.w3.org/2000/svg"
   viewBox="0 0 1333.3333 1333.3333"
   height="1333.3333"
   width="1333.3333"
   xml:space="preserve"
   id="svg2"
   version="1.1"><metadata
     id="metadata8"><rdf:RDF><cc:Work
         rdf:about=""><dc:format>image/svg+xml</dc:format><dc:type
           rdf:resource="http://purl.org/dc/dcmitype/StillImage" /></cc:Work></rdf:RDF></metadata><defs
     id="defs6" /><g
     transform="matrix(1.3333333,0,0,-1.3333333,0,1333.3333)"
     id="g10"><g
       transform="scale(0.1)"
       id="g12"><path
         id="path14"
         style="fill:#491B1D;fill-opacity:1;fill-rule:nonzero;stroke:none"
         d="m 5703.1,9186.7 c 107.1,53.1 228.6,86.5 348.7,68.3 81.2,-9.6 157.2,-51.3 210.6,-113 73.2,-83.2 112.6,-191.9 124,-301.1 25.8,-234.9 -4.9,-472 -56.8,-701.4 -80.5,-356.8 -202.2,-702.8 -332.8,-1043.9 -154.8,-398.7 -332.6,-788 -520.1,-1172.3 -190.1,-385.1 -382.3,-770 -603.5,-1138.4 -402.3,3.7 -802.3,123 -1143.3,335.8 -262.7,164.6 -490.1,388.6 -646.4,657.2 432.5,787.2 906.6,1553.3 1448.4,2270.5 217,279.8 444.4,553.4 704,795.1 142.1,131.2 293,256.6 467.2,343.2 m 965.8,-1416.6 c 53.9,199 95.1,401.4 125.1,605.5 518.5,-181.5 984.6,-492.8 1381.8,-869.2 276.4,-256.3 487.9,-577.3 638.3,-921.7 146,-335.5 236.3,-694.1 279,-1057.1 C 9170,4843 9097,4141.8 8881.1,3487.5 8727.7,3029.9 8506.4,2592.3 8208.1,2211.9 7801.5,1692.1 7276.3,1262 6676.4,984.5 c -264,-115.398 -545,-202.898 -834.7,-213.699 -200.8,-7 -405.7,25 -587.5,112.898 C 4884.3,1060 4610.6,1437.1 4582.8,1849 c -15.6,253.7 10.3,509.1 -23.7,761.8 -17.4,130 -50.8,259.3 -111.2,376.3 -76.4,139 -205.8,236 -327.2,333.3 166.9,125.7 329.8,257.7 476,407.3 244.5,-176.3 414.7,-442 502.9,-727.8 51.4,-161.8 77,-330.9 84.2,-500.2 29.9,-212.5 -18.4,-427.9 16.2,-640 26.7,-169.1 133.2,-326.3 286,-405.6 138.3,-72.6 302.1,-89.7 454.4,-59.7 277.3,48.3 541.1,158.4 780.9,304.2 220.4,133.1 422.8,294.1 612.8,467.4 392.4,353.2 690.2,804.9 885.9,1293.8 255.2,643.2 350,1352 258.6,2038.7 -52.7,396.2 -170.2,788.3 -378.7,1131.2 -85.1,137.7 -181.6,269.5 -298.1,382.4 -322.6,323.8 -706,591.3 -1132.9,758 M 7063,6686.7 c 136,9.3 277.6,-24.1 387.4,-107 85.9,-63.2 145.2,-162.8 155.2,-269.4 11.7,-131.3 -28,-264.9 -104.2,-371.8 -92.2,-133.8 -232.6,-230.5 -385.7,-282 -156.2,-52.2 -333.3,-54.3 -484.5,15.5 -135.8,60 -232.2,199.4 -241,347.5 -6.6,141.6 51.2,280.8 141.7,388 132.7,156 327.7,257.8 531.1,279.2 M 2855.9,5292.9 c 202.9,-264.2 464.5,-480.9 755.8,-641.5 300.2,-165.3 630.9,-274.2 969.8,-323.7 -222.2,-266.7 -470.7,-516.9 -764.1,-705.4 -108.2,-69.3 -222.8,-128.6 -342,-176.8 114.4,-145.8 184.5,-323.7 209.9,-506.7 32.6,-232.9 1,-472.7 -78.7,-693.4 C 3494.2,1941.3 3314.1,1663.8 3089.2,1430.9 2850.3,1185.3 2558.1,988.699 2233.9,875.301 2027.9,803 1809.3,765.102 1590.9,768.301 1392,788.602 1182.2,801.898 1006.3,906.898 954.801,932.199 929.801,995 939.102,1050 c 9.097,46.6 41.097,84.2 72.998,117.6 63.7,63.2 139.2,115.8 188.3,192.3 91.5,105.3 141.4,241.6 154,379.4 13.7,129.9 -0.9,260.6 -20.5,389 -15.9,107 -42.7,212.5 -49.7,320.7 -29.8,387.5 105.5,789.3 379,1068.1 107,104.4 234.2,186.7 369.9,248.8 198.1,90.3 412.6,139.9 628.2,165.7 -61,461.3 30.9,930 194.6,1361.3 m 4515.3,-274.1 c 138.6,8.1 284.7,-24.3 394.8,-112.2 89.2,-70.2 142.9,-182.4 141.7,-296 5.4,-119.5 -33.9,-238.4 -102,-335.9 -100.7,-145 -256.8,-247.3 -425.8,-294.4 -157.5,-44.2 -333.9,-37.2 -479.4,41.9 -63.8,32.4 -116,85.3 -150.7,147.6 -67.5,120.3 -73.1,272 -19.4,398.6 66.4,167.2 206.2,297.5 366.9,374 86.2,40 178.3,71.2 273.9,76.4 M 6385.5,3342.4 c 153,27.9 320.3,2.7 449,-87.9 79.3,-54.9 138.5,-140.1 156,-235.5 26.9,-148.4 -15.5,-304.5 -104.6,-424.9 -156.9,-213.4 -432.7,-338.6 -696.7,-303.2 -111.7,16.6 -222.8,63.5 -301.8,145.9 -91.5,101.8 -121.6,249.5 -92.8,381.6 32.8,140.8 120.4,264.3 231.6,354.7 103.6,84.7 228.7,141.3 359.3,169.3" /></g></g></svg>