<?xml version="1.0" encoding="UTF-8" standalone="no"?>
<svg
   xmlns:dc="http://purl.org/dc/elements/1.1/"
   xmlns:cc="http://creativecommons.org/ns#"
   xmlns:rdf="http://www.w3.org/1999/02/22-rdf-syntax-ns#"
   xmlns:svg="http://www.w3.org/2000/svg"
   xmlns="http://www.w3.org/2000/svg"
   viewBox="0 0 1333.3333 1333.3333"
   height="1333.3333"
   width="1333.3333"
   xml:space="preserve"
   id="svg2"
   version="1.1"><metadata
     id="metadata8"><rdf:RDF><cc:Work
         rdf:about=""><dc:format>image/svg+xml</dc:format><dc:type
           rdf:resource="http://purl.org/dc/dcmitype/StillImage" /></cc:Work></rdf:RDF></metadata><defs
     id="defs6" /><g
     transform="matrix(1.3333333,0,0,-1.3333333,0,1333.3333)"
     id="g10"><g
       transform="scale(0.1)"
       id="g12"><path
         id="path14"
         style="fill:#0948b3;fill-opacity:1;fill-rule:nonzero;stroke:none"
         d="m 2971.5,9178.1 c 105.9,107.6 296.3,111.2 408.6,11.7 71.4,-61 113.1,-155.9 105,-250.1 6,-294.9 -2,-589.8 -0.1,-884.7 527.9,-6.2 1055.9,0.3 1583.8,-3.6 233.8,-3.3 467.6,-0.5 701.4,-1.4 616.5,0 1233,0 1849.5,0 180.4,1.1 360.8,-2.1 541.1,1.7 561.2,3.3 1122.6,-2.8 1683.7,3.4 4.1,-105 5.8,-210 8.2,-315.1 -304.2,1.2 -608.5,-2.7 -912.7,2.5 0.5,-404.1 -1.8,-808.3 2.4,-1212.3 303.4,4.4 606.9,1.5 910.4,2.2 -4.5,-105 -4.2,-210.2 -8.1,-315.4 -194.9,7.1 -389.9,5.3 -584.9,5.6 -106.5,-3.4 -213.3,-4.8 -319.7,0.4 -0.2,-401.9 -0.1,-803.7 -0.1,-1205.5 304.3,-6.9 608.6,2.5 912.9,0 -4.6,-103.3 -3.1,-206.7 -5.4,-310 -302.4,4.1 -605,2 -907.5,2.5 0,-404.2 0,-808.4 0,-1212.7 300.8,19.1 602.2,-2.8 903,8.5 6.1,-103.5 7.8,-207.2 6.8,-310.9 -306.2,0.2 -612.5,0 -918.8,0.1 -60.4,-282.6 -231.2,-543.7 -477.4,-698.1 -259.7,-173.3 -583.5,-240.1 -891.9,-202.2 -315.1,36.6 -618.9,189.2 -823.1,434 -109.1,135 -171.1,300.5 -215.7,466.3 -267.7,-0.1 -535.3,0.1 -803,-0.1 -36.6,-0.5 -73.2,1.1 -109.7,3.2 -5.8,-404.3 -1.9,-808.7 -0.2,-1213.1 356.7,0.9 713.5,-2.3 1070.2,2.5 606.7,-0.8 1213.6,2.2 1820.2,-2.5 449.9,0 899.7,0 1349.5,0 1.1,-103.3 -1.1,-206.7 -5.4,-310 -291.7,0 -583.3,0 -874.9,0 -219.8,-1.2 -439.5,4.5 -659.3,2.5 -633.4,-0.9 -1266.9,2.3 -1900.2,-2.5 -272.2,-0.1 -544.3,0.1 -816.4,-0.1 -62.1,-326.7 -289.8,-613.9 -587.4,-759.4 -435.8,-227 -999.5,-188.398 -1394.9,105.6 -215.9,156 -364,397.1 -419.7,656.4 -280.6,0.1 -561.2,-0.1 -841.8,0.1 -206.6,-5.1 -413.3,-1.5 -619.9,-2.6 -276.5,-0.1 -553.1,0.2 -829.602,-0.1 -250.097,6.7 -500.398,-1 -750.5,4.3 0.301,102 -0.296,204 0.403,305.9 1012.899,-0.3 2025.799,0 3038.699,-0.1 72.8,351.5 326.3,660.2 658,797.9 361.4,163.9 791.7,143.8 1148.2,-23.5 -1.2,146.4 1.4,292.8 -1.3,439.1 -441.2,-6.1 -882.5,-2.6 -1323.8,-3.5 -1173.3,-0.1 -2346.5,0.2 -3519.799,-0.2 -0.602,101 -0.301,201.9 -0.199,302.7 1249.498,13 2499.398,5.6 3749.098,7.5 286.9,1.9 573.7,-5.3 860.6,-1.9 78.3,4 156.8,1 235.2,1.9 -0.3,401.7 0.6,803.3 -0.5,1204.9 -505.2,0.2 -1010.5,0.1 -1515.7,0.1 -43.1,-187.8 -130.7,-366.2 -259.2,-510.4 -100.7,-115.7 -229.5,-204.4 -367.1,-270.8 -392.4,-186.8 -876.9,-170.7 -1252.5,49.9 -131.9,79.8 -254.6,179.4 -343.7,306.4 -90.9,127.1 -152.3,273.6 -190.1,424.7 -306.2,0.4 -612.399,0 -918.7,0.2 -1.301,102.6 4.301,205 2.602,307.5 306,2 611.898,-3.4 917.798,-2 51.5,233.5 175.6,452.8 357.4,609.3 203.2,172.5 461.6,277.5 727.3,297.4 248.2,20.9 501.4,-27.4 725,-137.1 -0.2,145.8 0,291.6 -0.1,437.4 -265.9,-2 -531.7,-3.3 -797.6,-2.5 -326.7,5 -653.5,1.5 -980.2,2.5 -314.802,0.9 -629.501,-2.3 -944.302,-5.1 -6.398,104.8 -4.796,210 -6,315.1 800.301,0 1600.702,0 2401.102,0 108.3,-4 216.9,-3.1 325.4,-1.3 2.7,329.5 1.3,659.2 1.6,988.8 1.3,74.2 -1.6,148.3 -2.6,222.5 -118.4,-1 -236.9,2.4 -355.3,-2.5 -790.7,0 -1581.401,-0.1 -2372.1,0 -0.199,100.9 -1.301,201.9 5.602,302.6 498.796,10.3 997.798,11 1496.798,9.9 316.5,-4.9 633.3,-1.5 949.9,-2.5 93.4,-1.4 186.7,4.5 280.1,2.4 -3.7,306 -3.5,611.9 -1.9,917.9 1.7,78.2 36.6,154.5 93.5,207.8 m 516,-1435.6 c -3,-404.2 -2.8,-808.3 -2.5,-1212.5 304.9,5.3 609.8,1.2 914.7,2.5 247.1,1.3 494.2,-2.8 741.2,2.6 50.6,44.7 102.9,88.2 161.4,122.4 54.3,31.9 113.9,52.9 171.3,78.5 784.9,335.1 1569.5,671.1 2355.5,1003.6 -1176.3,0.9 -2352.7,0.1 -3529,0.4 -270.9,-1.3 -541.7,4.5 -812.6,2.5 m 2181.3,-2725 c 360.2,-0.1 720.6,1 1080.8,-2.5 527.6,0 1055.3,-0.1 1582.9,0.1 -1,408.3 2.7,816.7 -3,1225 -889.9,-401 -1773.6,-815.6 -2660.7,-1222.6 m -1029,1205.2 c -384.9,-9.3 -769.9,6.7 -1154.8,-3 0,-400.7 0,-801.5 0,-1202.2 245,1.9 489.8,-3.6 734.7,-2.5 257.6,0 515.2,-0.1 772.8,0.1 2.4,404.9 5,810.1 0.1,1215 -117.6,-1.5 -235.1,-8.4 -352.8,-7.4 M 5607.5,4710 c 0,-401.7 0,-803.3 0,-1204.9 305.6,-1 611.3,2.7 916.8,-4.2 22.3,133.9 77.5,260.9 151.1,374.5 185.2,279.8 494.8,470.9 826.3,518.2 281.1,55.6 572.4,-6.7 830.7,-121.6 -3.8,146 1.7,291.9 0.1,437.9 -908.3,0.1 -1816.7,0.1 -2725,0.1" /></g></g></svg>