<?xml version="1.0" encoding="UTF-8" standalone="no"?>
<svg
   xmlns:dc="http://purl.org/dc/elements/1.1/"
   xmlns:cc="http://creativecommons.org/ns#"
   xmlns:rdf="http://www.w3.org/1999/02/22-rdf-syntax-ns#"
   xmlns:svg="http://www.w3.org/2000/svg"
   xmlns="http://www.w3.org/2000/svg"
   viewBox="0 0 1280 1276"
   height="1276"
   width="1280"
   xml:space="preserve"
   id="svg2"
   version="1.1"><metadata
     id="metadata8"><rdf:RDF><cc:Work
         rdf:about=""><dc:format>image/svg+xml</dc:format><dc:type
           rdf:resource="http://purl.org/dc/dcmitype/StillImage" /></cc:Work></rdf:RDF></metadata><defs
     id="defs6" /><g
     transform="matrix(1.3333333,0,0,-1.3333333,0,1276)"
     id="g10"><g
       transform="scale(0.1)"
       id="g12"><path
         id="path14"
         style="fill:#ffffff;fill-opacity:1;fill-rule:nonzero;stroke:none"
         d="m 0,9570 h 2320 c 0,-763.3 0,-1526.6 0,-2290 -773.3,0 -1546.699,0 -2320,0 v 2290 m 330.102,-299.9 c -0.301,-553.4 0,-1106.7 -0.102,-1660.1 550,0 1100,0 1650,0 0,553.3 0,1106.7 0,1660 -550,0.1 -1099.898,-0.1 -1649.898,0.1 M 2650,9570 h 990 c 0,-320 0,-640 0,-960 -110,0 -220,0.1 -330,0 0.2,110 -0.1,220 0,330 -110,0 -220,0.1 -330,0 0,-110 -0.1,-220 0,-330 110,0 220,0 330,0 -0.1,-113.3 0.1,-226.6 0,-340 -110,-0.1 -220,0 -330,0 0,113.3 0.1,226.6 0,340 -110,0.1 -220,-0.1 -330,0 0,320 0,640 0,960 m 1650,0 h 330 c -0.1,-100 0,-200 0,-300 -110,0 -220,0.1 -330,0 0,100 0,200 0,300 m 1000,0 h 330 c 0.1,-100 -0.2,-200 0,-300 110,-0.1 220,0 330,0 -0.1,-110 0,-220 0,-330 -110,-0.1 -220,0.1 -330,0 0.6,-110 -1.3,-220.1 0.2,-330.1 109.9,0.1 219.8,0.1 329.8,0.1 0,-223.3 0,-446.7 0,-670 -220,0 -440,0 -660,0 -0.1,543.3 0,1086.7 0,1630 m 660,0 h 330 c 0,-100 0,-200 0,-300 -110,0.1 -220,0 -330,0 0,100 0.1,200 0,300 m 1320,0 H 9600 V 7280 c -773.3,0 -1546.7,0 -2320,0 -0.1,763.4 0.1,1526.7 0,2290 m 330,-300 c 0,-553.3 -0.1,-1106.7 0,-1660 553.4,0 1106.7,0 1660,0 0,553.3 0,1106.7 0,1660 -553.3,0 -1106.7,0 -1660,0 m -3640,0 c 110,0 220,0 330,0 -0.2,-110 0.1,-220 0,-330 110,-0.2 220,0.1 330,0 0,-110 -0.2,-220 0,-330 110,-0.1 220,0.1 329.9,-0.1 0.1,-113.3 0.1,-226.6 0.1,-339.9 -220,0 -440,0 -660,0 -0.1,113.3 0.1,226.7 0,340 -110,0.1 -220,-0.1 -330,0 0,220 0,440 0,660 m 660,0 c 110,0 220,0 330,0 0,-110 0,-220 0,-330 -110,0 -220,0 -330,0 0,110 0.1,220 0,330 m 1660,0 c 110,0 220,0 330,0 0,-110 0,-220 0,-330 -110,0 -220,0.1 -330,0 -0.1,110 0.2,220 0,330 M 660,8940 c 330,0 660,0 990,0 0,-333.3 -0.1,-666.6 0,-1000 -330,0 -660,0 -990,0 0,333.3 0,666.7 0,1000 m 5300,0 c 110,0 220,-0.1 330,0 0,-110 -0.2,-220 0,-330 -110,0 -220,0 -330,0 0.2,110 -0.1,220 0,330 m 660,0 c 110,0 220,0.1 330,0 0,-223.3 0,-446.7 0,-670 -110,-0.1 -220,0.1 -330,0 -0.1,-110 0,-220 0,-330 -110,0 -220,0 -330,0 0,223.3 0,446.7 0,670 110,0 220,-0.1 330,0 0,110 0,220 0,330 m 1320,0 c 333.3,0 666.6,0 1000,0 0,-333.3 0,-666.6 0,-999.9 -333.4,-0.2 -666.7,-0.1 -1000,-0.1 0,333.3 0,666.7 0,1000 M 2650,8270 c 110,0 220,0 330,0 0,-110 0,-220 0,-330 -110,0 -220,0 -330,0 0,110 0,220 0,330 m 990,0 c 110,0 220,0 330,0 0,-110 0,-220 0,-330 -110,0 -220,0 -330,0 0.1,110 -0.1,220 0,330 m -330,-330 c 110,0 220,-0.1 330,0 0,-220 0,-440 0,-660 110,0 220,0 330,0 0,-220 0,-440 0,-660 -110,-0.1 -220,0 -330,0 0,110 0,220 0,330 -220,0 -440,0 -660,0 -0.1,110 0.1,220 0,330 -110,0.1 -220,-0.1 -330,0 0,110 0,220 0,330 110,0 220,0 330,0 0.2,-110 -0.3,-220 0,-330 110,0 220,-0.1 330,0 0.1,220 -0.1,440 0,660 m 660,0 c 220,0 440,0 660,0 0,-110 -0.1,-220 0,-330 -110,-0.1 -220,0.2 -330,0 0.1,-110 -0.2,-220 0,-330 110,-0.1 220,0 330,0 -0.1,-110 0.1,-220 0,-330 -110,0 -220,0 -330,0 -0.1,110 0.1,220 0,329.9 -110,0.2 -220,0.1 -330,0.1 0,220 0,440 0,660 m 1990,0 c 110,0 220,0 330,0 0,-220 -0.1,-440 0,-660 -110,0.1 -220,0 -330,0 0,220 0.1,440 0,660 m 660,0 c 110,0 220.1,0.1 330.2,-0.1 -0.8,-329.9 0.2,-659.9 -0.2,-989.9 -220,0 -440,0 -660,0 -0.1,110 0,220 0,330 110,0 220,0 330,0 0,220 0,440 0,660 M 4630,7610 c 110,0 220,0 330,0 0,-110 0,-220 0,-330 -110,0 -220,0.1 -330,0 0.1,110 0,220 0,330 m 670,0 c 110,0 220,0 330,0 0.6,-110 -1.3,-220 0.1,-330 -110.1,0 -220.1,0 -330.1,0 0,110 0,220 0,330 M 0,6950 c 110,0 220,0.1 330,0 0.102,-110 -0.102,-220 0,-330 -110,0 -220,0 -330,0 v 330 m 990,0 c 663.4,0 1326.7,0 1990,0 0,-220 0,-440 0,-660 -110,0 -220,0 -330,0 -0.1,110 0.1,220 0,330 -223.3,0 -446.7,0.1 -670,0 -0.1,-110 0,-220 0,-330 113.3,-0.1 226.7,0 340,0 0.1,-110 -0.2,-220 0,-330 -223.3,0 -446.7,0 -670,0 0,220 0,440 0,660 -110,0 -220,0 -330,0 -0.1,-110 0.1,-220 0,-330 -330,0 -660,0 -990,0 -0.102,110 0.301,220 0,330 220,0 440,-0.1 660,0 0.301,110 -0.199,220 0,330 m 3970,0 c 113.3,0 226.6,0 340,0 0.1,-110 -0.1,-220 0,-330 110,0 220,0 330,0 0,110 -0.1,220 0,330 110,0 220,0 330,0 0,-110 0,-220 0,-330 -110,-0.1 -220,0.2 -330,-0.1 -0.2,-109.9 0.1,-219.9 0,-329.9 -110,0 -220,0 -330,0 -0.1,-110 0,-220 0,-330 -113.4,0 -226.8,-0.1 -340.2,0.1 0.8,329.9 -0.2,659.9 0.2,989.9 m 1990,0 c 110,0 220,0.1 330,0 0,-110 0,-220 0,-330 -110,0 -220,0 -329.9,0.1 -0.2,109.9 -0.1,219.9 -0.1,329.9 m 990,0 c 113.3,0 226.6,0 340,0 0,-220 0,-440 0,-660 -113.4,-0.1 -226.7,0.1 -340,0 -0.1,-110 0,-220 0,-330 -110,0 -220,0 -329.9,0 -0.2,-223.3 -0.1,-446.6 -0.1,-670 553.3,0 1106.7,0 1660,0 0.1,223.4 -0.1,446.7 0,670 110,0.1 220,-0.1 330,0 V 4300 c -110,0 -220,0 -330,0 -0.1,220 0.1,440 0,660 -110,0 -220,0.1 -330,-0.1 -0.1,-219.9 0.1,-439.9 0,-659.9 -110,0 -220,0 -330,0 0,220 0,440 0,660 -443.3,0 -886.7,0 -1330,0 0,-110 -0.1,-220 0,-330 110,-0.1 220,0.1 329.9,-0.1 0.1,-109.9 0.1,-219.9 0.1,-329.9 -110,-0.1 -220,0.1 -330,0 -0.1,-110 0.1,-220 0,-330 -110,-0.1 -220,0.2 -330,0 -0.3,-110 0.2,-220 0,-330 -110,-0.1 -220,0.1 -330,0 0,-220 0,-440 0,-660 220,0 440,0 660,0 0.1,110 -0.1,220 0,330 220,0.1 440,0 660,0 0.1,220 -0.1,440 0,660 113.3,0.1 226.7,0 340,0 0,110 0,220 0,330 110,0 220,0 330,0 0,-110 -0.1,-220 0,-330 -110,0 -220,0.1 -330,0 -0.3,-110 0.1,-220 0,-330 110,-0.1 220,0.1 330,0 0,-110 -0.1,-220 0,-330 110,-0.2 220,0.2 330,-0.1 0.1,-109.9 -0.1,-219.9 0,-329.9 110,-0.1 220,0.1 330,0 0,-110 0,-220 0,-330 -220,-0.1 -440,0.1 -660,0 -0.1,-223.3 0,-446.6 0,-670 -110,-0.1 -220,0.2 -330,0 -0.2,-110 0.1,-220 0,-330 110,-0.1 220,0.1 330,0 0,-110 0,-220 0,-330 -223.4,-0.1 -446.7,0.1 -670,0 0,-110 0,-220 0,-330 113.3,0 226.6,0.102 340,0 0.1,-110 -0.2,-220 0,-330 109.9,0 219.9,-0.102 330,0 0.2,110 -0.1,220 0,330 220,0.102 440,-0.102 660,0 0,220 0,440 0,660 110,0 220,0 330,0 V 330 c -110,0 -220,0 -330,0 -0.1,110 0.1,220 0,330 -110,0 -220,0.102 -330,0 -0.1,-110 0.1,-220 0,-330 -110,-0.102 -220,0.102 -330,0 -0.1,-110 0,-220 0,-330 H 7610 c 0.1,110 -0.1,220 0,330 -110,0.102 -220,-0.102 -330,0 0,110 0,220 0,330 109.9,0 219.9,0 329.8,-0.102 0.5,220.102 0.3,440.102 0,660.202 -109.9,-0.2 -219.8,0.1 -329.8,-0.1 -0.2,-110 0.1,-220 0,-330 -220,0 -440,0 -660,0 -0.1,110 0.1,220 0,330 -110,0.1 -220,0 -330,0 0,110 0,220 0,330 -220,0 -440,0 -660,0 0,110 0,220 0,330 219.9,0 439.9,0 659.8,-0.1 1.1,110.1 -0.3,220.1 0.2,330.1 110,0 220,0 330,0 0,113.3 0,226.7 0,340 -110,0 -220,0 -330,0 -0.1,-113.3 0,-226.7 0,-340 -220,0 -440,0 -660,0 0,113.3 0.1,226.7 0,340 -110,0 -220,0 -330,0 0,-113.3 0,-226.6 0,-340 110,0 220,0 330,0 0.1,-110 -0.2,-220 0,-330 -110,0 -220,0.1 -330,0 -0.1,-110 0,-220 0,-330 -113.3,0 -226.7,0 -340,0 0,443.3 0,886.7 0,1330 113.3,0.1 226.6,-0.1 340,0 0,110 0,220 0,330 110,0 220,0.1 330,0 0,-110 -0.1,-220 0,-330 110,0 220,0 330,0 0,220 0,440 0,660 110,0.1 220,-0.2 330,0 -0.6,110 1.3,220 -0.1,329.9 220,0.2 440.1,0.1 660.1,0.1 0,110 0,220 0,330 -220,0.1 -440,-0.1 -660,0 -0.2,110 0.2,220 0,330 -110,0.2 -220,0 -330,0 0,220 0,440 0,660 110,0 220,-0.1 330,0 -0.1,-110 -0.2,-220 0.1,-330 219.9,0 439.9,0 659.9,0 0.3,110 -0.2,220 0,330 110,0 220,-0.1 330,0 0,113.4 0,226.7 0,340 -220,0.1 -440,0 -660,0 0,220 0,440 0,660 110,0 220,0.1 330,0 0.7,-110 -1.3,-220.1 0.2,-330.1 219.9,0.2 439.9,0.1 659.8,0.1 -0.4,220 0.7,440 -0.1,659.9 110,0.2 220,0 330.1,0.1 0.1,110 -0.1,220 0,330 M 6950.1,2650.1 c -0.4,-333.4 0.1,-666.7 -0.1,-1000.1 330,0 660,0 990,0 0,333.3 0,666.7 0,1000 -330,0.1 -659.9,-0.1 -989.9,0.1 M 7940,660 c 0,-110 0,-220 0,-330 113.3,0 226.6,0 340,0 -0.1,110 0.2,219.898 -0.2,329.801 -113.3,0.5 -226.5,0.097 -339.8,0.199 m 670,6290 c 330,0.1 660,0 990,0 v -330 c -110,0 -220,0 -330,0 -0.1,-110 0.1,-220 0,-330 -110,-0.1 -220,0.1 -329.9,0 -0.4,-110 0.1,-220 -0.1,-330 -110,0.1 -220,0.1 -330,0 0.1,330 -0.1,660 0,990 M 3310,6620 c 110,0 220,-0.1 330,0 -0.1,-443.3 0.1,-886.6 -0.1,-1329.9 -109.9,-0.2 -219.9,0.1 -329.9,-0.1 -0.1,-110 0,-220 0,-330 220,0 440,0 660,0 0,-110 -0.1,-220 0,-330 220,0 440,-0.1 660,0 0,220 0,440 0,660 -110,0.1 -220,0.1 -330,-0.1 -0.2,-109.9 0.2,-219.9 0,-329.9 -110,0 -220,0 -330,0 0,110 -0.1,220 0,330 110,0.1 220,0 330,0 0,113.3 -0.1,226.7 0,340 220,0 440,0 660,0 0.1,-113.3 -0.1,-226.6 0,-340 113.3,-0.1 226.6,0.1 340,0 0.1,-110 -0.1,-220 0,-330 110,-0.1 220,0.1 330,0 0.1,-330 -0.1,-660 0,-990 110,-0.1 220,0.1 330,0 0,-110 -0.1,-220 0,-330 -220,0 -440,0.1 -660,0 -0.1,-110 0,-220 0,-330 -223.3,0 -446.7,0.1 -670,0 0,-663.4 0,-1326.7 0,-1990 -220,0 -440,0.1 -660,0 -0.1,-220 0.1,-440 0,-660 -110,-0.102 -220,0.102 -330,0 -0.1,-110 0,-220 0,-330 110,-0.102 220,0.102 330,0 0,-110 0,-220 0,-330 h -660 c 0,220 0,440 0,660 110,0.102 220,-0.102 330,0 0,330 -0.1,660 0,990 220,0.1 440,0 660,0 0,220 0.1,440 0,660 -110,0.1 -220,0 -330,0 -0.1,-110 0.1,-220 0,-330 -110.1,0 -220.1,-0.1 -330.1,0.1 0.4,223.3 0.3,446.6 0,669.8 110,0.2 220,0 330.1,0.1 0,110 0,220 0,330 -220,0.1 -440,0 -660,0 0,110 0,220 0,330 220,0 440,0 660,0 0.1,110 -0.1,220 0,330 330,0.1 660,-0.1 990,0 -0.6,110 1.3,220 -0.1,329.9 113.3,0.2 226.7,0 340.1,0.1 0,220 0,440 0,660 -113.4,0 -226.7,0 -340,0 -0.1,-110 0.1,-220 0,-330 -220,-0.1 -440,0.1 -660,0 0,-110 0,-220 -0.1,-330 -219.9,0 -439.9,0 -659.9,0 -0.1,220 0.1,440 0,660 -330,0.1 -660,-0.1 -990,0 0,110 0,220 0,330 110,0.1 220,-0.1 330,0 0.2,110 -0.1,220 0,330 -333.3,0 -666.7,0 -1000,0 0.1,113.3 -0.1,226.7 0,340 113.3,0.1 226.7,-0.1 340,0 0,110 0,220 0,330 110,0 220,0.1 330,0 0.1,-110 -0.1,-220 0,-330 110,0 220,0 330,0 0.1,110 -0.1,220 0.1,329.9 109.9,0.2 219.9,0 329.9,0.1 0.1,220 0,440 0,660 m 2979.9,-0.1 c 110,0.2 220,0.1 330.1,0.1 0,-110 0,-220 0,-330 -110,0 -220,0 -330,0 -0.7,110 1.4,220 -0.1,329.9 M 3970,6290 c 220,0 440,0 660,0 0,-110 0,-220 0,-330 -220,0 -440,0 -660,0 0,110 0,220 0,330 m 1660,0 c 110,-0.1 220,0.1 330,0 0.1,-110 -0.2,-220 0,-330 110,-0.2 220,0.1 329.9,0 0.2,-110 0,-220 0.1,-330 -330,0 -660,0 -990,0 -0.1,110 0,220 0,330 110,0 220,0 330,0 0.1,110 0,220 0,330 M 0,5960 c 330,0 660,0.1 989.898,-0.1 C 990.102,5850 990,5740 990,5630 c -330,0 -660,0 -990,0 v 330 m 1320,0 c 110,0 220,0 330,0 -0.1,-110 0.1,-220 0,-330 -110,0 -220,0 -330,0 0,110 -0.1,220 0,330 m 6620,0 c 223.3,0 446.7,0 670,0 -0.1,-110 0.1,-220 0,-330 -223.3,0 -446.7,0 -670,0 -0.1,110 0,220 0,330 M 990,5630 c 110,0 220,0 330,0 0,-113.3 0.1,-226.6 0,-340 -110,0 -220,0 -330,0 0,113.4 0,226.7 0,340 m 5300,0 c 110,0 220,0 330,0 0,-113.3 0,-226.6 0,-340 -110,0 -220,0 -330,0 0,113.3 0,226.7 0,340 M 1650,5290 c 110,0 220,-0.1 330,0 -0.1,-110 0,-220 0,-330 113.3,-0.1 226.7,0 340,0 0,-110 0,-220 0,-330 -113.3,0 -226.7,0.1 -340,0 0,-110 0,-220 0,-330 223.3,-0.1 446.7,0.1 670,0 0.1,-110 -0.1,-220 0,-330 110,-0.1 220.1,0.1 330.1,-0.1 -1.5,-109.9 0.5,-219.9 -0.1,-329.9 110,-0.2 220,0.1 330,0 0.2,-110 -0.2,-220 0,-330 -220,0 -440,0 -660,0 -0.1,110 0.1,220 0,330 -110,0 -220,0 -330,0 -0.4,110 0.9,220.1 -0.2,330.1 -113.2,-0.2 -226.5,0.1 -339.8,-0.1 -0.1,-110 0,-220 0,-330 -220,0 -440,0 -660,0 0,-220 0,-440 0,-660 110,0 220,0 330,0 0.1,110 -0.1,220 0.1,330 109.9,0.1 219.9,0 329.9,0 0,-110 0,-220 0,-330 223.3,-0.1 446.7,0.1 670,0 0,-110 0,-220 0,-330 -663.3,0 -1326.6,0 -1990,0 0,220 0,440 0,660 110,0 219.898,0 329.801,-0.1 1.398,110.1 -0.403,220.1 0.199,330.1 -110,0.2 -220,-0.1 -330,0 -0.102,110 0.199,220 0,330 220,0 440,0 660,0 0.1,110 -0.1,220 0,330 110,0.1 220,-0.1 330,0 0.1,330 -0.1,660 0,990 M 0,4630 c 110,0 220,0 329.898,0 C 330,4520 330,4410 330,4300 c 110,-0.1 220,0 330,0 0,-110 -0.102,-220 0,-330 -220,0 -440,0 -660,0 v 660 m 660,0 c 110,0 220,0.1 329.898,-0.1 C 990,4520 990,4410 990,4300 c -110,0 -220,0 -330,0 0,110 -0.102,220 0,330 m 7280,0 c 113.3,0 226.6,0 339.9,0 0.1,-110 0.1,-220 0.1,-330 -113.3,0 -226.7,0 -340,0 0,110 0,220 0,330 m 670,-660 c 220,0 440,0 660,0 0,-110 0,-220 0,-330 -220,0 -440,0 -660,0 0,110 0.1,220 0,330 M 1980,3640 c 113.3,0 226.7,0 340,0 -0.1,-110 0.1,-220 0,-330 -113.4,0 -226.7,0.1 -340,0 0.2,110 -0.1,220 0,330 m 7290,0 c 110,0 220,0 330,0 v -330 c -110,0 -220,0 -330,0 -0.1,110 0,220 0,330 M 2980,2980 c 110,0.1 220,0 330,0 0,-553.3 0,-1106.6 0,-1660 -110,0 -219.9,0 -329.8,0 -1.2,-109.9 0.3,-219.9 -0.2,-330 -110,0 -220,0 -330,0 0,553.4 0,1106.7 0,1660 110,0 220,0 330,0 0.1,110 -0.1,220 0,330 M 0,2310 c 773.301,0 1546.6,0 2320,0 0,-770 0,-1540 0,-2310 H 0 v 2310 m 330,-330 c 0,-550 0,-1100 0,-1650 550,0 1100,0 1650,0 0,550 0,1100 0,1650 -550,0 -1100,0 -1650,0 m 6950,330 c 110,0.1 220,0 330,0 -0.1,-110 0,-220 0,-330 -110,0.1 -220,0 -330,0 0,110 0,220 0,330 m 1660,-330 c 110,0 220,0.1 330,0 0,-110 0,-220 0,-330 -110,0 -220,0 -330,0 -0.1,110 0,220 0,330 M 660,1650 c 330,0 660,0 990,0 0.4,-330 -0.6,-660 0.1,-990 -330,0 -660.1,0 -990.1,0 0,330 0,660 0,990 m 4640,0 c 110,0 220,0 330,0 0,-110 -0.1,-220 -0.1,-330 -109.9,0 -219.9,0 -329.9,0 0,110 0,220 0,330 m -670,-330 c 223.3,0 446.7,0 670,0 0,-220 0,-440 0,-660 -113.3,-0.102 -226.7,0.102 -340,0 -0.1,-110 0.1,-220 0,-330 -110,0 -220,0 -330,0 0,110 0,220 0,330 -110,0.102 -220,0 -330,0 0,110 0,220 0,330 110,0 220,0 330,0 0,110 0.1,220 0,330 M 5630,990 c 220,0 440,0 660,0 0,-110 -0.1,-220 0,-330 110,-0.102 220,0.102 330,0 0.1,-110 -0.1,-220 0,-330 110,-0.102 220,0.102 330,0 0.1,-110 -0.1,-220 0,-330 h -660 c 0.1,110 -0.1,220 0,330 -110,0.102 -220,0 -330,0 -0.1,110 0.1,220 0,330 -110,0.102 -220,0 -330,0 0,110 0,220 0,330 M 2650,330 c 110,0 220,0.102 330,0 0.1,-110 -0.1,-220 0,-330 h -330 c 0,110 -0.1,220 0,330 m 1650,0 c 110,0.102 220,0 330,0 0,-110 0,-220 0,-330 h -330 c 0,110 0,220 0,330 m 660,0 c 223.3,0 446.6,0 670,0 0.1,-110 -0.1,-220 0,-330 h -670 c 0.1,110 -0.1,220 0,330" /></g></g></svg>