<?xml version="1.0" encoding="UTF-8" standalone="no"?>
<svg
   xmlns:dc="http://purl.org/dc/elements/1.1/"
   xmlns:cc="http://creativecommons.org/ns#"
   xmlns:rdf="http://www.w3.org/1999/02/22-rdf-syntax-ns#"
   xmlns:svg="http://www.w3.org/2000/svg"
   xmlns="http://www.w3.org/2000/svg"
   viewBox="0 0 1333.3333 1333.3333"
   height="1333.3333"
   width="1333.3333"
   xml:space="preserve"
   id="svg2"
   version="1.1"><metadata
     id="metadata8"><rdf:RDF><cc:Work
         rdf:about=""><dc:format>image/svg+xml</dc:format><dc:type
           rdf:resource="http://purl.org/dc/dcmitype/StillImage" /></cc:Work></rdf:RDF></metadata><defs
     id="defs6" /><g
     transform="matrix(1.3333333,0,0,-1.3333333,0,1333.3333)"
     id="g10"><g
       transform="scale(0.1)"
       id="g12"><path
         id="path14"
         style="fill:#491B1D;fill-opacity:1;fill-rule:nonzero;stroke:none"
         d="m 3099.4,9589.4 c 93.8,15.6 203,15.6 278.3,-51.3 93.2,-79.5 130.2,-200.9 168.9,-312.7 258.6,-783.6 504.9,-1571.2 756.1,-2357.2 268,-110.5 536.9,-219.2 803.9,-332.3 31,-14 58.6,-34.2 87.7,-51.7 732.7,-457.2 1463.7,-917 2195.6,-1375.5 88.4,-50.4 178.3,-117.6 208,-219.9 32.2,-103 -21.6,-211 -95.3,-281.6 -72.9,-62 -177.5,-67.4 -266.8,-44.7 -180.5,43.7 -332.4,154.9 -494.7,239.5 -115.3,54.4 -223.7,121.8 -334.6,184.3 -424.7,245.7 -842.4,502.9 -1262.6,756 -127.8,-333.5 -255.2,-667.1 -383.8,-1000.3 129.6,-153.2 187.5,-354.4 200.1,-551.7 6.1,-148.6 23.4,-300.2 -14.5,-446.2 108.7,-180.4 215.9,-361.8 326.6,-541.1 33.9,-53.2 63.9,-109.1 101.5,-160 477.5,-565.2 956.9,-1128.8 1434.5,-1694 38.2,-44.7 49.4,-110.5 27.9,-165.3 -16.8,-46.2 -60.2,-73.7 -94.7,-105.8 -64.1,-54.8 -149.4,-104.502 -236.6,-80.599 C 6389.9,1026.2 6311.1,1121 6223.6,1193.9 5672.1,1699.3 5134.5,2219.5 4594.2,2736.6 4378,2126.9 4156.6,1519.1 3939.8,909.602 c -27.7,-79.5 -106.4,-136.801 -190,-141.704 -94.1,-4.796 -187.1,33 -258,93.602 -45.4,38.898 -70,99 -69.6,158.3 -0.7,69.5 25.5,135.3 51.6,198.5 35.9,83.9 52.2,174.2 76.2,261.8 148.1,615.5 279.2,1234.8 412.6,1853.5 -505.3,484.2 -728.2,1229.3 -611.9,1914.8 74.6,367.7 187.6,729.4 357.6,1064.7 -242.7,922.3 -495.2,1842.2 -741.3,2763.6 -30.3,117.6 -49,242 -22.3,362.1 15.5,74.7 76.8,141.6 154.7,150.6 M 5121.3,8239 c 170.6,17.1 347.9,-22.1 492.1,-115.9 140.1,-90.3 249.8,-227.2 305.7,-384.4 61.8,-172.9 58.2,-367.9 -8.6,-538.8 -105.3,-275.7 -384.2,-474.1 -679.7,-479.9 -157.2,-6.8 -316.5,36 -447.9,122.9 -162.4,105.5 -281.2,275.5 -324.1,464.3 -36.5,164.5 -21.2,341.5 50.3,494.7 108.6,239.7 349.9,412.5 612.2,437.1" /></g></g></svg>