<?xml version="1.0" encoding="UTF-8" standalone="no"?>
<svg
   xmlns:dc="http://purl.org/dc/elements/1.1/"
   xmlns:cc="http://creativecommons.org/ns#"
   xmlns:rdf="http://www.w3.org/1999/02/22-rdf-syntax-ns#"
   xmlns:svg="http://www.w3.org/2000/svg"
   xmlns="http://www.w3.org/2000/svg"
   viewBox="0 0 1333.3333 1333.3333"
   height="1333.3333"
   width="1333.3333"
   xml:space="preserve"
   id="svg2"
   version="1.1"><metadata
     id="metadata8"><rdf:RDF><cc:Work
         rdf:about=""><dc:format>image/svg+xml</dc:format><dc:type
           rdf:resource="http://purl.org/dc/dcmitype/StillImage" /></cc:Work></rdf:RDF></metadata><defs
     id="defs6" /><g
     transform="matrix(1.3333333,0,0,-1.3333333,0,1333.3333)"
     id="g10"><g
       transform="scale(0.1)"
       id="g12"><path
         id="path14"
         style="fill:#491B1D;fill-opacity:1;fill-rule:nonzero;stroke:none"
         d="m 4961.6,9238.3 c 193.4,23.2 397.1,-10.1 564.6,-112.3 133.3,-82.6 246.2,-195 339.2,-320.6 106.6,-144.3 190.1,-304.4 259.9,-469.3 273.9,-685.9 410.2,-1427.5 392.1,-2166 -12,-478.3 -89.2,-956.1 -238.9,-1410.9 C 6173.9,4435.6 6031.2,4122.8 5837.4,3842.6 5625.1,3533.3 5350.2,3260.3 5016,3085 4700.1,2917.3 4334.5,2851.2 3979.2,2883.2 3558.9,2918.4 3154.8,3070.5 2794.4,3285.7 2164,3660.6 1639.2,4198.8 1243.5,4813.8 1121.7,5003.3 1011.1,5200 913.602,5403.1 782.699,5669.8 680,5949.4 591.898,6232.8 479.5,6602.2 413,6997 485.898,7380.8 c 63.602,315.7 316.903,576 621.002,672 243.4,74.9 500,90.4 753.1,94.8 133.3,-1.9 266.4,4.5 399.7,2.3 260.8,3.1 524.5,21.6 775.4,97.6 359.1,100.8 666.1,321.1 969.9,528.9 228.2,155.8 462.1,309.5 723.2,404.8 74.9,29.1 153.7,47.6 233.4,57.1 m -295.4,-1826 c -136.1,-13.8 -270.8,-56.9 -384,-134.9 -105.4,-70 -192.2,-170.4 -238.2,-289 -50.4,-136.6 -22.1,-295.2 60.8,-413.1 42.2,-59.8 112.6,-94.4 184.1,-103.8 101.5,-16.4 201.4,18.7 294.2,56.1 178.4,73.5 339.3,187 472.3,326.5 52.9,56.6 110.8,114.4 131.1,191.7 28.9,92.9 2.9,204.8 -76.5,264.9 -123.1,99.8 -291,119 -443.8,101.6 M 2515.8,6752.2 c -187.2,-31.2 -363.9,-126.5 -493.1,-265.5 -47,-54 -96.7,-112.4 -107.3,-185.8 -23.9,-135.8 70.7,-279.4 204.9,-311 266.6,-64.4 559.1,-89.1 816.8,22.9 52.5,24.6 105.4,51.3 148.8,90.5 58.4,54.7 84.1,137.8 78.9,216.5 -10.2,150 -99.6,292 -230.5,365.9 -125.6,72.3 -277.1,86.8 -418.5,66.5 m 2730,-1301.6 c -139.9,-126.2 -278.4,-254.4 -429,-368 -107.8,-82.2 -226,-149 -343.6,-215.9 -114.6,-61.7 -236.8,-109 -362.3,-143.5 -405.4,-109.7 -835.1,-88.3 -1243.4,-5.6 29,-80.6 75.6,-153.9 131.8,-218.2 111.3,-122.7 248.7,-222.5 400.4,-289.2 333.7,-145.2 723.3,-123.5 1055.9,13.5 161.4,67 314.3,158.6 441.2,279.5 138,134.1 245.3,300.6 305.8,483.6 47.7,148.7 69,308.9 43.2,463.8 m 3134.7,793.6 c 165,11.2 332.9,-0.4 491.3,-50.4 192.9,-59.4 374.2,-176.5 482,-350.3 151.3,-245.3 198.5,-539.7 195.4,-823.9 C 9544,4755.4 9505.4,4493 9454.6,4234.1 9291.4,3425 8943.9,2649.6 8425.3,2005.5 8189.8,1715.3 7923.2,1447.4 7615.7,1233.4 7287.1,1002.7 6911.2,828.801 6511.2,773.301 6318.1,747.5 6120.4,745.5 5928.7,782.699 c -277.6,52.602 -539.8,173.199 -770.4,335.001 -250.6,175.7 -461.9,402.3 -641.7,648.8 -169,233.1 -308,487.1 -422.4,751 137.7,-1.8 275.7,9.2 411.2,34.6 27.2,3.1 58.3,13.2 83,-4.1 147.6,-291.3 327.2,-569.7 556.3,-804.1 212.6,-218.1 473.8,-395.4 767.9,-481.8 331.2,-91.3 686.4,-28.2 996.4,107.2 428.4,190 794.9,499.5 1095.2,855.8 162,192.2 306.1,399.1 434.9,614.8 364.7,637.1 595.2,1355.2 639.5,2089.4 6.8,164.2 9.1,332.6 -38.5,491.5 -33,106.4 -92.7,209.7 -187.3,272.3 -144.9,95 -326.3,95.8 -493,86 -504.2,-44.6 -1006.8,-162.8 -1515.4,-113.2 16.2,155.1 25.9,310.7 33.6,466.4 504.7,-55.6 1001,85.7 1502.5,111.9 M 7386,4781.8 c 144.9,21.1 294.2,-13.4 421.5,-83.8 177.9,-98.7 321.2,-262.5 386.3,-456.2 15.3,-44.8 20.9,-93.5 9.8,-140 -27.4,-130.5 -160,-229.2 -293.1,-215.8 -261.8,15.5 -532.3,77.7 -743.5,240.8 -61.7,48.5 -125.8,103.8 -146.9,182.8 -36,126.1 21.4,260.6 111.7,349.2 66.5,70.3 158.8,111.6 254.2,123 M 5823.8,3115.3 c 390.1,115.5 841.6,19.1 1138.9,-262.2 199.1,-192.5 321.5,-468.4 309.6,-747.1 -270.9,213.8 -575.2,394.8 -911.7,481.3 -97.6,27.5 -199.6,32.1 -300.3,32.8 -309.5,6.2 -618.2,-62.1 -902,-183.9 21.4,166.7 120.2,312.6 239.7,426.1 118.8,117.2 265.5,205.7 425.8,253" /></g></g></svg>